<?xml version="1.0" standalone="no"?><!DOCTYPE svg PUBLIC "-//W3C//DTD SVG 1.1//EN" "http://www.w3.org/Graphics/SVG/1.1/DTD/svg11.dtd">
<svg t="1752429902754" class="icon" viewBox="0 0 1024 1024" version="1.1" xmlns="http://www.w3.org/2000/svg" p-id="4894"
     width="48" height="48"><path d="M825.173333 367.786667l52.48-46.933334-189.44-63.146666 40.106667 195.413333 49.066667-42.666667a268.8 268.8 0 0 1-249.173334 371.2 261.546667 261.546667 0 0 1-125.44-31.146666l-9.813333-4.266667-28.586667 54.186667 9.386667 5.12a334.506667 334.506667 0 0 0 154.453333 37.973333A331.093333 331.093333 0 0 0 858.88 512a324.266667 324.266667 0 0 0-32.426667-141.653333zM337.92 321.706667a266.24 266.24 0 0 1 190.293333-78.933334 283.733333 283.733333 0 0 1 63.146667 7.253334l10.24 2.56 14.08-59.733334-10.24-2.56a335.36 335.36 0 0 0-77.226667-8.96A331.093333 331.093333 0 0 0 197.546667 512a308.053333 308.053333 0 0 0 9.813333 75.093333v2.986667l-61.44 34.986667 170.666667 101.12v-199.253334l-56.32 31.573334a261.973333 261.973333 0 0 1 77.653333-236.8z" p-id="4895"></path></svg>